<?xml version="1.0" encoding="utf-8"?>
<svg xmlns="http://www.w3.org/2000/svg" width="128" height="128">
  <defs>
    <linearGradient id="feralGradient" x1="0%" y1="0%" x2="0%" y2="100%">
      <stop offset="0" stop-color="#7a0f0f"/>
      <stop offset="1" stop-color="#ff3b3b"/>
    </linearGradient>
  </defs>
  <rect style="stroke: rgb(39, 6, 6); paint-order: fill; stroke-width: 0px; fill-rule: nonzero; fill: rgb(26, 26, 26);" x="2" y="2" width="124" height="124" rx="8" ry="8"/>
  <path fill="url(#feralGradient)" stroke-linejoin="round" stroke-linecap="round" d="M 88.106 13.633 C 85.404 13.687 82.776 14.434 80.538 15.992 C 72.936 21.275 72.553 28.112 77.052 37.964 C 76.493 31.004 80.419 24.658 88.036 22.188 C 95.75 19.685 102.441 22.816 105.96 28.95 C 105.008 19.569 96.219 13.472 88.108 13.633 L 88.106 13.633 Z M 53.151 17.239 C 47.856 17.256 42.803 19.528 40.175 23.803 C 36.277 30.156 36.702 39.258 45.079 46.528 C 42.018 40.059 43.479 32.557 49.884 27.427 C 56.372 22.229 63.931 22.807 69.528 27.427 C 66.287 20.478 59.543 17.218 53.15 17.239 L 53.151 17.239 Z M 93.448 24.733 C 92.05 24.728 90.577 24.964 89.068 25.455 C 80.283 28.306 77.508 37.39 82.734 45.45 L 110.636 92.296 L 105.721 37.989 C 105.314 30.161 100.187 24.745 93.448 24.733 Z M 59.271 26.91 C 56.719 26.939 54.168 27.806 51.933 29.81 C 44.718 36.271 45.023 45.813 53.138 51.779 L 97.88 87.372 L 72.915 35.936 C 70.522 30.871 64.887 26.848 59.271 26.91 Z M 97.977 30.574 C 98.058 30.574 98.14 30.578 98.222 30.595 C 98.549 30.665 98.906 30.921 99.388 31.446 C 100.349 32.495 101.455 34.928 101.823 38.997 L 104.458 68.097 L 96.051 43.917 C 94.745 40.158 94.596 37.031 95.026 34.783 C 95.457 32.536 96.483 31.247 97.223 30.839 C 97.501 30.685 97.736 30.586 97.977 30.574 Z M 63.348 32.077 C 63.706 32.069 64.149 32.197 64.753 32.504 C 66.137 33.201 68.14 35.192 70.024 39.055 L 83.811 67.348 L 65.932 46.049 C 63.229 42.83 61.91 39.807 61.5 37.436 C 61.089 35.064 61.628 33.408 62.234 32.714 C 62.538 32.367 62.821 32.144 63.201 32.089 C 63.249 32.082 63.299 32.077 63.348 32.077 Z M 31.272 44.657 C 27.254 44.739 23.516 46.532 20.564 49.568 C 11.106 59.297 18.082 74.772 29.635 78.106 C 24.244 73.384 22.598 65.906 26.435 58.64 C 30.32 51.283 37.489 48.8 44.466 50.8 C 40.154 46.433 35.55 44.574 31.272 44.657 Z M 40.587 53.262 C 36.167 53.241 32.022 55.587 29.533 60.301 C 25.109 68.682 29.56 77.358 39.171 79.552 L 93.216 94.06 L 50.747 57.615 C 47.631 54.724 44.027 53.279 40.588 53.262 L 40.587 53.262 Z M 41.071 57.273 C 41.221 57.269 41.39 57.273 41.575 57.285 C 43.044 57.376 45.613 58.38 48.815 61.119 L 71.892 80.857 L 48.138 68.914 C 44.474 67.071 42.106 64.878 40.795 62.904 C 39.482 60.928 39.295 59.222 39.545 58.388 C 39.763 57.656 40.023 57.293 41.071 57.273 Z M 28.231 81.381 C 23.299 81.439 19.286 84.071 17.814 89.755 C 15.009 100.595 21.342 111.216 33.785 111.653 C 27.999 109.084 24.648 103.219 25.977 96.079 C 27.323 88.858 32.718 84.88 39.125 84.736 C 35.412 82.509 31.607 81.34 28.231 81.381 Z M 39.138 87.521 C 34.712 87.615 30.81 90.267 29.32 96.719 C 27.498 104.611 33.671 110.629 42.07 109.976 L 89.852 108.096 L 45.954 89.143 C 43.856 88.131 41.662 87.553 39.571 87.521 C 39.426 87.516 39.281 87.516 39.138 87.521 Z M 38.901 91.444 C 40.177 91.407 42.051 91.726 44.46 92.763 L 66.551 102.284 L 45.633 99.108 C 42.238 98.596 39.857 97.427 38.397 96.192 C 36.939 94.955 36.465 93.684 36.485 92.978 C 36.504 92.27 36.664 91.9 37.824 91.586 C 38.115 91.507 38.474 91.457 38.901 91.444 Z" style="stroke-width: 8px; paint-order: stroke;" id="object-0"/>
</svg>