<?xml version="1.0" encoding="UTF-8" standalone="no"?>
<svg
   width="100"
   height="24"
   stroke-linejoin="round"
   version="1.1"
   id="svg2"
   sodipodi:docname="Untitled(2).svg"
   inkscape:version="1.4.2 (f4327f4, 2025-05-13)"
   xmlns:inkscape="http://www.inkscape.org/namespaces/inkscape"
   xmlns:sodipodi="http://sodipodi.sourceforge.net/DTD/sodipodi-0.dtd"
   xmlns="http://www.w3.org/2000/svg"
   xmlns:svg="http://www.w3.org/2000/svg">
  <sodipodi:namedview
     id="namedview2"
     pagecolor="#505050"
     bordercolor="#eeeeee"
     borderopacity="1"
     inkscape:showpageshadow="0"
     inkscape:pageopacity="0"
     inkscape:pagecheckerboard="0"
     inkscape:deskcolor="#505050"
     inkscape:zoom="8.93"
     inkscape:cx="40.425532"
     inkscape:cy="-3.8073908"
     inkscape:window-width="1920"
     inkscape:window-height="1009"
     inkscape:window-x="1912"
     inkscape:window-y="-8"
     inkscape:window-maximized="1"
     inkscape:current-layer="svg2" />
  <defs
     id="defs2">
    <linearGradient
       id="feralGradient"
       x1="0%"
       y1="0%"
       x2="0%"
       y2="100%">
      <stop
         offset="0"
         stop-color="#7a0f0f"
         id="stop1" />
      <stop
         offset="1"
         stop-color="#ff3b3b"
         id="stop2" />
    </linearGradient>
  </defs>
  <path
     fill="url(#feralGradient)"
     stroke-linejoin="round"
     stroke-linecap="round"
     d="M 18.287 0.701 C 17.639 0.714 17.007 0.886 16.469 1.247 C 14.643 2.471 14.551 4.054 15.633 6.336 C 15.498 4.723 16.441 3.254 18.27 2.682 C 20.123 2.102 21.731 2.827 22.574 4.248 C 22.347 2.076 20.235 0.663 18.287 0.701 Z M 9.89 1.536 C 8.618 1.54 7.404 2.065 6.772 3.056 C 5.837 4.528 5.938 6.635 7.951 8.319 C 7.216 6.82 7.567 5.084 9.105 3.895 C 10.664 2.692 12.48 2.826 13.824 3.895 C 13.045 2.286 11.425 1.531 9.89 1.536 Z M 19.57 3.273 C 19.234 3.27 18.88 3.324 18.519 3.438 C 16.408 4.1 15.742 6.203 16.997 8.069 L 23.7 18.917 L 22.519 6.342 C 22.421 4.528 21.189 3.274 19.57 3.273 Z M 11.361 3.776 C 10.747 3.782 10.134 3.983 9.598 4.447 C 7.865 5.944 7.938 8.154 9.887 9.535 L 20.634 17.777 L 14.638 5.866 C 14.064 4.693 12.709 3.761 11.361 3.776 Z M 20.659 4.624 C 20.677 4.624 20.697 4.625 20.718 4.63 C 20.796 4.646 20.881 4.705 20.997 4.825 C 21.228 5.069 21.494 5.632 21.582 6.575 L 22.214 13.313 L 20.196 7.715 C 19.882 6.844 19.847 6.12 19.95 5.599 C 20.054 5.078 20.299 4.78 20.477 4.685 C 20.544 4.65 20.6 4.627 20.659 4.624 Z M 12.34 4.971 C 12.426 4.971 12.533 5 12.676 5.072 C 13.009 5.232 13.492 5.694 13.943 6.588 L 17.255 13.141 L 12.96 8.208 C 12.311 7.463 11.995 6.763 11.896 6.213 C 11.796 5.664 11.927 5.281 12.073 5.12 C 12.144 5.04 12.213 4.987 12.305 4.975 C 12.316 4.974 12.327 4.971 12.34 4.971 Z M 4.633 7.885 C 3.669 7.905 2.771 8.32 2.063 9.023 C -0.211 11.276 1.465 14.859 4.241 15.632 C 2.946 14.538 2.55 12.806 3.471 11.124 C 4.406 9.419 6.127 8.845 7.804 9.308 C 6.768 8.297 5.662 7.866 4.633 7.885 Z M 6.873 9.878 C 5.81 9.873 4.815 10.416 4.217 11.508 C 3.154 13.45 4.223 15.459 6.531 15.966 L 19.515 19.326 L 9.312 10.886 C 8.564 10.217 7.698 9.882 6.873 9.878 Z M 6.987 10.807 C 7.024 10.806 7.064 10.807 7.11 10.81 C 7.462 10.831 8.08 11.063 8.848 11.698 L 14.393 16.269 L 8.686 13.502 C 7.805 13.076 7.237 12.568 6.922 12.111 C 6.607 11.654 6.561 11.259 6.621 11.065 C 6.673 10.896 6.736 10.812 6.987 10.807 Z M 3.904 16.39 C 2.72 16.404 1.755 17.013 1.401 18.329 C 0.727 20.84 2.248 23.299 5.237 23.4 C 3.848 22.806 3.042 21.448 3.362 19.795 C 3.685 18.122 4.981 17.2 6.521 17.167 C 5.629 16.652 4.715 16.381 3.904 16.39 Z M 6.525 17.812 C 5.461 17.834 4.523 18.447 4.165 19.942 C 3.728 21.769 5.211 23.163 7.227 23.012 L 18.706 22.577 L 8.161 18.188 C 7.657 17.953 7.13 17.82 6.628 17.812 C 6.593 17.81 6.559 17.81 6.525 17.812 Z M 6.467 18.72 C 6.773 18.712 7.224 18.786 7.803 19.025 L 13.109 21.23 L 8.084 20.495 C 7.268 20.376 6.696 20.106 6.346 19.819 C 5.995 19.533 5.881 19.239 5.886 19.076 C 5.892 18.912 5.929 18.825 6.208 18.753 C 6.278 18.735 6.365 18.723 6.467 18.72 Z"
     style="paint-order:stroke;stroke-width:0.5;stroke:#ffffff;stroke-opacity:1;stroke-dasharray:none"
     id="object-0" />
  <path
     d="M 433.70197,202.18401 V 94.810959 h 73.60839 v 18.164061 h -51.92871 v 25.41504 h 44.82422 v 18.16406 h -44.82422 v 45.62989 z m 91.47949,0 V 94.810959 h 79.61426 v 18.164061 h -57.93457 v 23.80371 h 53.90625 v 18.09082 h -53.90625 v 29.22364 h 59.98535 v 18.09082 z m 100.12207,0 V 94.810959 h 45.62988 q 17.21191,0 24.97559,2.929687 7.83691,2.856444 12.52441,10.253904 4.6875,7.39746 4.6875,16.91895 0,12.08496 -7.10449,19.99512 -7.10449,7.83691 -21.24024,9.88769 7.03125,4.10156 11.57227,9.00879 4.61426,4.90723 12.37793,17.43164 l 13.11035,20.94727 H 695.909 l -15.67383,-23.36426 q -8.34961,-12.52442 -11.42578,-15.74707 -3.07617,-3.2959 -6.51856,-4.46778 -3.44238,-1.24511 -10.91308,-1.24511 h -4.39453 v 44.82422 z m 21.67969,-61.96289 h 16.04003 q 15.60059,0 19.48243,-1.31836 3.88183,-1.31836 6.0791,-4.54102 2.19726,-3.22266 2.19726,-8.05664 0,-5.41992 -2.92968,-8.71582 -2.85645,-3.36914 -8.12989,-4.24805 -2.63672,-0.36621 -15.82031,-0.36621 h -16.91894 z m 183.39843,61.96289 h -23.58398 l -9.375,-24.38965 h -42.91992 l -8.86231,24.38965 H 722.6424 L 764.46368,94.810959 h 22.92481 z m -39.91699,-42.48047 -14.79492,-39.84375 -14.50195,39.84375 z m 52.00195,42.48047 V 95.689865 h 21.67969 v 88.403325 h 53.90625 v 18.09082 z"
     id="text2"
     style="font-weight:700;font-size:150px;font-family:Arial, sans-serif;text-transform:uppercase;text-anchor:middle;white-space:pre;fill:#e0e0e0;stroke-width:6.80904px;paint-order:fill"
     transform="matrix(0.139725, 0, 0, 0.154002, -31.965151, -10.864402)"
     aria-label="FERAL" />
</svg>
