<?xml version="1.0" encoding="utf-8"?>
<svg xmlns="http://www.w3.org/2000/svg" width="4371.184px" height="1673.563px" viewBox="0 0 1156.542 442.797" transform="rotate(0) scale(1, 1)" xmlns:bx="https://boxy-svg.com">
  <defs>
    <linearGradient id="feralGradient" x1="0%" y1="0%" x2="0%" y2="100%">
      <stop offset="0" stop-color="#7a0f0f"/>
      <stop offset="1" stop-color="#ff3b3b"/>
    </linearGradient>
    <linearGradient gradientUnits="userSpaceOnUse" x1="672.618" y1="66.796" x2="672.618" y2="234.621" id="gradient-0">
      <stop offset="0" style="stop-color: rgb(129, 17, 17);"/>
      <stop offset="1" style="stop-color: rgb(248, 57, 57);"/>
    </linearGradient>
    <linearGradient gradientUnits="userSpaceOnUse" x1="752.697" y1="268.661" x2="752.697" y2="387.485" id="gradient-1">
      <stop offset="0" style="stop-color: rgb(247, 56, 56);"/>
      <stop offset="1" style="stop-color: rgb(137, 20, 20);"/>
    </linearGradient>
    <bx:export>
      <bx:file format="png" href="#object-0"/>
      <bx:file format="png" path="Untitled 2.png"/>
    </bx:export>
  </defs>
  <path fill="url(#feralGradient)" stroke-linejoin="round" stroke-linecap="round" d="M 292.361 53.898 C 283.658 54.069 275.195 56.482 267.989 61.489 C 243.51 78.505 242.281 100.515 256.765 132.248 C 254.965 109.834 267.608 89.406 292.133 81.445 C 316.971 73.389 338.519 83.469 349.845 103.227 C 346.781 73.012 318.48 53.375 292.363 53.895 L 292.361 53.898 Z M 179.806 65.514 C 162.753 65.569 146.484 72.874 138.026 86.651 C 125.474 107.106 126.842 136.413 153.812 159.817 C 143.959 138.984 148.661 114.829 169.287 98.31 C 190.176 81.583 214.519 83.44 232.536 98.31 C 222.101 75.933 200.387 65.446 179.804 65.514 L 179.806 65.514 Z M 309.559 89.64 C 305.056 89.632 300.314 90.385 295.455 91.962 C 267.169 101.14 258.235 130.399 275.062 156.351 L 364.903 307.183 L 349.076 132.328 C 347.767 107.121 331.259 89.675 309.559 89.64 Z M 199.511 96.652 C 191.292 96.742 183.08 99.541 175.883 105.984 C 152.651 126.784 153.634 157.513 179.764 176.723 L 323.83 291.334 L 243.448 125.713 C 235.742 109.411 217.593 96.453 199.511 96.652 Z M 324.141 108.454 C 324.402 108.441 324.665 108.458 324.931 108.516 C 325.985 108.745 327.137 109.562 328.685 111.253 C 331.78 114.638 335.341 122.468 336.527 135.567 L 345.009 229.267 L 317.939 151.416 C 313.732 139.308 313.255 129.232 314.639 121.999 C 316.027 114.766 319.332 110.613 321.715 109.304 C 322.608 108.812 323.368 108.489 324.141 108.454 Z M 212.64 113.288 C 213.792 113.258 215.217 113.672 217.164 114.656 C 221.62 116.905 228.07 123.319 234.134 135.752 L 278.527 226.86 L 220.96 158.28 C 212.257 147.913 208.012 138.183 206.69 130.546 C 205.367 122.907 207.101 117.578 209.053 115.34 C 210.032 114.221 210.94 113.502 212.167 113.329 C 212.32 113.305 212.48 113.29 212.643 113.285 L 212.64 113.288 Z M 109.357 153.799 C 96.419 154.055 84.386 159.83 74.879 169.608 C 44.422 200.938 66.886 250.768 104.088 261.503 C 86.729 246.3 81.425 222.217 93.779 198.814 C 106.289 175.122 129.376 167.131 151.843 173.57 C 137.954 159.512 123.13 153.528 109.357 153.799 Z M 139.353 181.495 C 125.118 181.427 111.773 188.991 103.758 204.168 C 89.512 231.153 103.845 259.092 134.79 266.15 L 308.812 312.866 L 172.067 195.517 C 162.031 186.214 150.428 181.548 139.356 181.495 L 139.353 181.495 Z M 140.911 194.418 C 141.393 194.408 141.937 194.423 142.529 194.458 C 147.264 194.749 155.535 197.986 165.845 206.802 L 240.15 270.362 L 163.664 231.901 C 151.867 225.973 144.243 218.9 140.019 212.547 C 135.795 206.194 135.191 200.697 135.996 198.006 C 136.697 195.649 137.537 194.478 140.911 194.418 Z M 99.567 272.041 C 83.683 272.227 70.76 280.711 66.023 299.008 C 56.991 333.905 77.384 368.106 117.448 369.518 C 98.82 361.249 88.029 342.358 92.307 319.379 C 96.642 296.119 114.011 283.315 134.645 282.849 C 122.687 275.676 110.435 271.916 99.567 272.041 Z M 134.687 291.81 C 120.436 292.122 107.869 300.657 103.072 321.433 C 97.206 346.841 117.084 366.224 144.125 364.124 L 297.983 358.068 L 156.632 297.037 C 149.874 293.785 142.811 291.911 136.077 291.81 C 135.613 291.803 135.146 291.801 134.687 291.81 Z M 133.92 304.443 C 138.031 304.323 144.062 305.354 151.823 308.696 L 222.952 339.356 L 155.596 329.128 C 144.667 327.469 137 323.709 132.301 319.732 C 127.602 315.759 126.078 311.659 126.141 309.38 C 126.202 307.105 126.719 305.913 130.454 304.899 C 131.388 304.649 132.549 304.485 133.92 304.446 L 133.92 304.443 Z" style="stroke-width: 8px; stroke: rgb(255, 255, 255); paint-order: stroke;" id="object-0"/>
  <text style="fill: url(&quot;#gradient-0&quot;); font-family: &quot;Arial&quot;, sans-serif; font-size: 150px; font-weight: 700; paint-order: stroke; stroke: rgb(255, 255, 255); stroke-width: 5.61177px; text-anchor: middle; text-transform: uppercase; white-space: pre;" transform="matrix(1.356284, 0, 0, 1.494865, -161.119644, -47.945347)" x="672.618" y="202.184">FERAL</text>
  <text style="fill: url(&quot;#gradient-1&quot;); font-family: &quot;Arial&quot;, sans-serif; font-size: 105px; font-weight: 700; paint-order: stroke; stroke: rgb(255, 255, 255); stroke-width: 8px; white-space: pre;" x="551.397" y="364.3">ENGINE</text>
</svg>