<?xml version="1.0" encoding="utf-8"?>
<svg xmlns="http://www.w3.org/2000/svg" width="11.941" height="15.466">
  <defs>
    <linearGradient id="feralGradient" x1="0%" y1="0%" x2="0%" y2="100%">
      <stop offset="0" stop-color="#7a0f0f"/>
      <stop offset="1" stop-color="#ff3b3b"/>
    </linearGradient>
  </defs>
  <path fill="#eff1f5" stroke="#9f9fa1" stroke-linecap="round" stroke-linejoin="round" d="m 10.669,4.3231271 c -0.368,-0.508 -2.218,-0.623 -3.086,-0.546 0.034,-1.064 0.492,-1.839 -0.593,-2.766 M 0.49999996,0.50112715 H 5.221 c 1.205,-0.032 1.977,0.59099995 2.788,1.32599995 l 1.932,1.716 c 0.998,0.89 1.393,1.729 1.5,2.94 V 14.966127 H 0.50099996 Z"/>
  <path fill="url(#feralGradient)" stroke-linejoin="round" stroke-linecap="round" d="M 8.411 4.3 C 8.137 4.304 7.869 4.38 7.642 4.537 C 6.869 5.072 6.832 5.761 7.289 6.757 C 7.232 6.053 7.63 5.412 8.403 5.162 C 9.187 4.91 9.867 5.226 10.223 5.847 C 10.129 4.898 9.236 4.283 8.411 4.3 Z M 4.861 4.664 C 4.323 4.666 3.809 4.894 3.542 5.327 C 3.145 5.969 3.189 6.887 4.04 7.621 C 3.729 6.968 3.877 6.21 4.528 5.692 C 5.186 5.166 5.956 5.226 6.523 5.692 C 6.194 4.991 5.51 4.662 4.861 4.664 Z M 8.953 5.42 C 8.811 5.42 8.663 5.443 8.509 5.493 C 7.618 5.781 7.335 6.7 7.865 7.512 L 10.7 12.245 L 10.201 6.759 C 10.159 5.969 9.638 5.422 8.953 5.42 Z M 5.482 5.641 C 5.222 5.643 4.964 5.732 4.737 5.934 C 4.003 6.585 4.034 7.549 4.859 8.151 L 9.403 11.747 L 6.867 6.553 C 6.626 6.041 6.053 5.635 5.482 5.641 Z M 9.413 6.01 C 9.421 6.01 9.43 6.01 9.438 6.012 C 9.473 6.021 9.508 6.045 9.558 6.099 C 9.655 6.204 9.768 6.45 9.805 6.861 L 10.071 9.8 L 9.217 7.357 C 9.086 6.978 9.071 6.662 9.114 6.436 C 9.158 6.208 9.261 6.079 9.337 6.037 C 9.366 6.023 9.388 6.012 9.413 6.01 Z M 5.896 6.163 C 5.933 6.161 5.978 6.176 6.038 6.206 C 6.18 6.274 6.382 6.476 6.575 6.867 L 7.974 9.725 L 6.158 7.574 C 5.883 7.248 5.75 6.942 5.708 6.704 C 5.667 6.464 5.722 6.297 5.782 6.227 C 5.813 6.192 5.843 6.169 5.881 6.163 C 5.885 6.163 5.892 6.163 5.896 6.163 Z M 2.638 7.434 C 2.229 7.442 1.85 7.621 1.549 7.929 C 0.589 8.911 1.298 10.475 2.471 10.812 C 1.923 10.334 1.755 9.579 2.145 8.845 C 2.541 8.102 3.269 7.853 3.978 8.053 C 3.54 7.613 3.074 7.426 2.638 7.434 Z M 3.584 8.302 C 3.135 8.3 2.715 8.538 2.461 9.014 C 2.011 9.86 2.463 10.737 3.44 10.957 L 8.931 12.424 L 4.615 8.742 C 4.3 8.451 3.933 8.304 3.584 8.302 Z M 3.632 8.707 C 3.649 8.707 3.665 8.707 3.683 8.709 C 3.834 8.717 4.094 8.82 4.419 9.096 L 6.764 11.09 L 4.351 9.882 C 3.978 9.697 3.739 9.476 3.605 9.276 C 3.471 9.076 3.453 8.905 3.477 8.82 C 3.5 8.746 3.526 8.709 3.632 8.707 Z M 2.328 11.143 C 1.828 11.149 1.42 11.415 1.271 11.989 C 0.985 13.084 1.628 14.157 2.894 14.2 C 2.304 13.94 1.963 13.348 2.1 12.628 C 2.236 11.898 2.784 11.495 3.436 11.481 C 3.058 11.257 2.671 11.139 2.328 11.143 Z M 3.436 11.761 C 2.987 11.772 2.59 12.04 2.438 12.692 C 2.255 13.488 2.881 14.097 3.733 14.031 L 8.588 13.841 L 4.129 11.927 C 3.915 11.824 3.693 11.766 3.481 11.761 C 3.465 11.761 3.451 11.761 3.436 11.761 Z M 3.411 12.16 C 3.542 12.156 3.733 12.187 3.978 12.292 L 6.222 13.253 L 4.096 12.934 C 3.752 12.882 3.508 12.763 3.362 12.638 C 3.213 12.513 3.166 12.384 3.168 12.315 C 3.168 12.243 3.185 12.205 3.302 12.172 C 3.333 12.166 3.37 12.16 3.411 12.16 Z" style="paint-order: stroke; stroke: rgb(255, 255, 255); stroke-width: 0px; transform-origin: 5.9px 9.25px 0px;" id="object-0"/>
</svg>