<?xml version="1.0" encoding="utf-8"?>
<svg xmlns="http://www.w3.org/2000/svg" width="22.882" height="29.932">
  <defs>
    <linearGradient id="feralGradient" x1="0%" y1="0%" x2="0%" y2="100%">
      <stop offset="0" stop-color="#7a0f0f"/>
      <stop offset="1" stop-color="#ff3b3b"/>
    </linearGradient>
  </defs>
  <path fill="#eff1f5" stroke="#9f9fa1" stroke-linecap="round" stroke-linejoin="round" d="m 20.837,8.1462384 c -0.736,-1.016 -4.435,-1.245 -6.172,-1.093 0.068,-2.126 0.983,-3.676 -1.186,-5.532 M 0.49999998,0.50223838 H 9.941 c 2.41,-0.063 3.955,1.18200002 5.576,2.65200002 l 3.865,3.433 c 1.994,1.779 2.785,3.4569996 3,5.8799996 v 16.965 H 0.49999998 Z"/>
  <path fill="url(#feralGradient)" stroke-linejoin="round" stroke-linecap="round" d="M 16.674 7.901 C 16.12 7.909 15.579 8.062 15.12 8.38 C 13.558 9.46 13.483 10.852 14.406 12.864 C 14.291 11.442 15.096 10.147 16.658 9.642 C 18.242 9.133 19.616 9.771 20.336 11.026 C 20.146 9.109 18.341 7.866 16.674 7.901 Z M 9.5 8.636 C 8.412 8.64 7.374 9.101 6.834 9.976 C 6.032 11.272 6.121 13.127 7.84 14.61 C 7.212 13.291 7.511 11.759 8.827 10.713 C 10.156 9.65 11.713 9.771 12.858 10.713 C 12.194 9.297 10.811 8.632 9.5 8.636 Z M 17.769 10.163 C 17.482 10.163 17.183 10.21 16.872 10.311 C 15.071 10.893 14.499 12.749 15.571 14.389 L 21.3 23.951 L 20.291 12.868 C 20.207 11.272 19.154 10.167 17.769 10.163 Z M 10.755 10.61 C 10.229 10.614 9.708 10.794 9.249 11.202 C 7.766 12.517 7.828 14.464 9.496 15.68 L 18.679 22.945 L 13.554 12.452 C 13.067 11.418 11.909 10.598 10.755 10.61 Z M 18.699 11.355 C 18.715 11.355 18.733 11.355 18.749 11.359 C 18.82 11.377 18.891 11.426 18.992 11.535 C 19.188 11.747 19.416 12.244 19.491 13.074 L 20.029 19.012 L 18.303 14.076 C 18.038 13.311 18.008 12.672 18.095 12.216 C 18.184 11.755 18.392 11.495 18.545 11.41 C 18.604 11.382 18.648 11.359 18.699 11.355 Z M 11.591 11.664 C 11.666 11.66 11.757 11.691 11.878 11.751 C 12.165 11.889 12.573 12.297 12.964 13.087 L 15.791 18.86 L 12.121 14.515 C 11.565 13.856 11.296 13.238 11.211 12.757 C 11.129 12.272 11.24 11.935 11.361 11.794 C 11.424 11.723 11.484 11.676 11.561 11.664 C 11.569 11.664 11.583 11.664 11.591 11.664 Z M 5.007 14.232 C 4.181 14.248 3.415 14.61 2.806 15.232 C 0.866 17.216 2.299 20.375 4.67 21.056 C 3.562 20.09 3.223 18.565 4.011 17.082 C 4.811 15.581 6.282 15.078 7.715 15.482 C 6.83 14.594 5.888 14.216 5.007 14.232 Z M 6.919 15.985 C 6.012 15.981 5.163 16.462 4.649 17.424 C 3.74 19.133 4.653 20.904 6.628 21.349 L 17.725 24.312 L 9.002 16.874 C 8.366 16.286 7.624 15.989 6.919 15.985 Z M 7.016 16.804 C 7.05 16.804 7.083 16.804 7.119 16.808 C 7.424 16.824 7.95 17.032 8.606 17.589 L 13.345 21.618 L 8.469 19.177 C 7.715 18.803 7.232 18.357 6.961 17.953 C 6.691 17.549 6.654 17.204 6.703 17.032 C 6.749 16.882 6.802 16.808 7.016 16.804 Z M 4.381 21.725 C 3.37 21.737 2.546 22.274 2.244 23.434 C 1.666 25.646 2.966 27.813 5.524 27.9 C 4.332 27.375 3.643 26.179 3.92 24.724 C 4.195 23.25 5.302 22.436 6.62 22.407 C 5.856 21.955 5.074 21.717 4.381 21.725 Z M 6.62 22.973 C 5.712 22.995 4.91 23.537 4.603 24.854 C 4.233 26.462 5.498 27.692 7.22 27.559 L 17.032 27.175 L 8.02 23.308 C 7.588 23.1 7.139 22.983 6.711 22.973 C 6.678 22.973 6.65 22.973 6.62 22.973 Z M 6.569 23.779 C 6.834 23.771 7.22 23.834 7.715 24.046 L 12.25 25.987 L 7.954 25.343 C 7.258 25.238 6.765 24.997 6.47 24.745 C 6.169 24.492 6.074 24.232 6.078 24.092 C 6.078 23.947 6.113 23.87 6.349 23.803 C 6.412 23.791 6.486 23.779 6.569 23.779 Z" style="paint-order: stroke; stroke: rgb(255, 255, 255); stroke-width: 0px; transform-origin: 11.599px 17.9px 0px;" id="object-0"/>
</svg>