<?xml version="1.0" encoding="utf-8"?>
<svg xmlns="http://www.w3.org/2000/svg" width="719.822" height="945.446">
  <defs>
    <linearGradient id="feralGradient" x1="0%" y1="0%" x2="0%" y2="100%">
      <stop offset="0" stop-color="#7a0f0f"/>
      <stop offset="1" stop-color="#ff3b3b"/>
    </linearGradient>
  </defs>
  <path fill="#eff1f5" stroke="#9f9fa1" stroke-linecap="round" stroke-linejoin="round" stroke-width="19.603" d="m 660.5925,254.50703 c -23.575,-32.542 -141.93,-39.864 -197.505,-34.983 2.17,-68.048 31.457,-117.655 -37.966,-177.025 M 9.801499,9.8740295 H 311.9115 c 77.128,-2.02 126.554,37.8360005 178.444,84.8820005 l 123.665,109.83 c 63.819,56.94 89.13,110.624 96,188.174 v 542.885 H 9.801499 Z"/>
  <text style="fill: rgb(138, 20, 20); font-family: Montserrat; font-size: 112px; font-weight: 800; white-space: pre;" x="82.327" y="839.368">PROJECT</text>
  <path fill="url(#feralGradient)" stroke-linejoin="round" stroke-linecap="round" d="M 473.643 233.015 C 460.427 233.291 447.556 236.912 436.584 244.494 C 399.343 270.218 397.483 303.481 419.534 351.454 C 416.776 317.558 436.012 286.675 473.302 274.648 C 511.076 262.457 543.855 277.699 561.071 307.553 C 556.433 261.912 513.372 232.227 473.643 233.015 Z M 302.454 250.573 C 276.508 250.649 251.765 261.696 238.898 282.522 C 219.819 313.44 221.877 357.733 262.917 393.122 C 247.925 361.625 255.093 325.135 286.444 300.161 C 318.218 274.858 355.256 277.682 382.647 300.161 C 366.78 266.321 333.747 250.452 302.454 250.573 Z M 499.817 287.069 C 492.953 287.004 485.749 288.152 478.377 290.549 C 435.337 304.445 421.745 348.66 447.342 387.867 L 584 615.88 L 559.923 351.569 C 557.935 313.463 532.803 287.108 499.817 287.069 Z M 332.44 297.635 C 319.923 297.774 307.421 302.009 296.488 311.748 C 261.152 343.204 262.642 389.653 302.391 418.69 L 521.516 591.924 L 399.25 341.566 C 387.545 316.928 359.93 297.341 332.44 297.635 Z M 522.013 315.47 C 522.388 315.47 522.786 315.493 523.201 315.583 C 524.804 315.924 526.547 317.165 528.908 319.705 C 533.62 324.819 539.047 336.652 540.825 356.471 L 553.719 498.096 L 512.564 380.423 C 506.167 362.122 505.455 346.906 507.556 335.961 C 509.669 325.015 514.661 318.757 518.311 316.754 C 519.655 316.023 520.82 315.523 522.013 315.47 Z M 352.384 322.773 C 354.147 322.755 356.328 323.363 359.255 324.876 C 366.06 328.242 375.874 337.949 385.092 356.746 L 452.607 494.471 L 365.039 390.796 C 351.809 375.132 345.375 360.428 343.353 348.875 C 341.314 337.324 343.989 329.269 346.955 325.902 C 348.407 324.209 349.809 323.104 351.668 322.855 C 351.911 322.832 352.149 322.773 352.384 322.773 Z M 195.282 384.005 C 175.611 384.419 157.308 393.14 142.868 407.92 C 96.524 455.281 130.69 530.588 187.278 546.83 C 160.872 523.837 152.815 487.442 171.59 452.092 C 190.646 416.247 225.743 404.183 259.927 413.929 C 238.792 392.669 216.255 383.613 195.282 384.005 Z M 240.933 425.897 C 219.264 425.793 198.978 437.216 186.775 460.161 C 165.113 500.97 186.924 543.187 233.985 553.854 L 498.676 624.479 L 290.67 447.095 C 275.417 433.022 257.761 425.972 240.933 425.897 Z M 243.269 445.419 C 244.026 445.397 244.829 445.419 245.767 445.477 C 252.961 445.929 265.528 450.812 281.198 464.139 L 394.259 560.213 L 277.893 502.07 C 259.948 493.113 248.362 482.442 241.943 472.833 C 235.508 463.212 234.596 454.931 235.8 450.854 C 236.872 447.29 238.142 445.518 243.269 445.419 Z M 180.403 562.773 C 156.26 563.049 136.593 575.865 129.383 603.516 C 115.638 656.283 146.653 707.974 207.597 710.099 C 179.253 697.601 162.835 669.062 169.356 634.323 C 175.951 599.167 202.369 579.776 233.765 579.089 C 215.582 568.263 196.945 562.576 180.403 562.773 Z M 233.842 592.65 C 212.155 593.104 193.038 605.997 185.731 637.414 C 176.821 675.812 207.042 705.122 248.16 701.934 L 482.201 692.804 L 267.198 600.541 C 256.911 595.62 246.179 592.81 235.945 592.65 C 235.23 592.617 234.537 592.617 233.842 592.65 Z M 232.651 611.75 C 238.907 611.562 248.084 613.125 259.905 618.138 L 368.087 664.499 L 265.632 649.046 C 248.992 646.551 237.327 640.856 230.199 634.833 C 223.052 628.833 220.737 622.648 220.832 619.229 C 220.93 615.765 221.68 613.947 227.383 612.437 C 228.811 612.059 230.574 611.802 232.651 611.75 Z" style="paint-order: stroke; stroke: rgb(255, 255, 255); stroke-width: 0px; transform-origin: 352.599px 471.552px 0px;" id="object-0"/>
</svg>