<?xml version="1.0" encoding="utf-8"?>
<svg xmlns="http://www.w3.org/2000/svg" width="944.362" height="383.294" viewBox="0 0 885.34 359.338" xmlns:bx="https://boxy-svg.com">
  <defs>
    <linearGradient id="feralGradient" x1="0%" y1="0%" x2="0%" y2="100%">
      <stop offset="0" stop-color="#7a0f0f"/>
      <stop offset="1" stop-color="#ff3b3b"/>
    </linearGradient>
    <style bx:fonts="ADLaM Display">@import url(https://fonts.googleapis.com/css2?family=ADLaM+Display%3Aital%2Cwght%400%2C400&amp;display=swap);</style>
    <style bx:fonts="AR One Sans">@import url(https://fonts.googleapis.com/css2?family=AR+One+Sans%3Aital%2Cwght%400%2C400..700&amp;display=swap);</style>
  </defs>
  <path fill="url(#feralGradient)" stroke-linejoin="round" stroke-linecap="round" d="M 274.156 0.012 C 263.876 0.22 253.864 2.953 245.329 8.674 C 216.36 28.084 214.913 53.183 232.066 89.382 C 229.921 63.805 244.884 40.502 273.891 31.426 C 303.274 22.228 328.772 33.729 342.164 56.256 C 338.556 21.816 305.06 -0.582 274.156 0.012 Z M 140.993 13.26 C 120.81 13.318 101.563 21.654 91.554 37.368 C 76.713 60.697 78.314 94.119 110.238 120.823 C 98.576 97.056 104.152 69.522 128.539 50.678 C 153.255 31.585 182.066 33.716 203.373 50.678 C 191.03 25.143 165.335 13.17 140.993 13.26 Z M 294.516 40.799 C 289.177 40.75 283.573 41.616 277.839 43.425 C 244.359 53.91 233.786 87.273 253.697 116.857 L 360 288.906 L 341.271 89.468 C 339.725 60.715 320.175 40.828 294.516 40.799 Z M 164.318 48.772 C 154.581 48.877 144.856 52.072 136.352 59.421 C 108.865 83.157 110.024 118.205 140.944 140.115 L 311.395 270.831 L 216.288 81.92 C 207.183 63.329 185.702 48.55 164.318 48.772 Z M 311.782 62.229 C 312.074 62.229 312.383 62.247 312.706 62.315 C 313.953 62.572 315.309 63.508 317.145 65.425 C 320.811 69.283 325.032 78.212 326.415 93.167 L 336.445 200.031 L 304.432 111.241 C 299.456 97.431 298.902 85.95 300.536 77.691 C 302.18 69.432 306.063 64.71 308.902 63.198 C 309.948 62.647 310.854 62.269 311.782 62.229 Z M 179.832 67.74 C 181.203 67.726 182.9 68.185 185.177 69.327 C 190.47 71.867 198.104 79.191 205.275 93.374 L 257.793 197.296 L 189.676 119.068 C 179.385 107.248 174.38 96.153 172.807 87.435 C 171.221 78.719 173.302 72.642 175.609 70.101 C 176.738 68.824 177.829 67.989 179.275 67.802 C 179.464 67.784 179.649 67.74 179.832 67.74 Z M 57.626 113.943 C 42.325 114.256 28.087 120.836 16.855 131.989 C -19.195 167.725 7.382 224.549 51.4 236.804 C 30.86 219.454 24.592 191.993 39.197 165.319 C 54.02 138.272 81.321 129.169 107.912 136.523 C 91.472 120.48 73.941 113.648 57.626 113.943 Z M 93.137 145.553 C 76.281 145.474 60.501 154.094 51.009 171.408 C 34.159 202.2 51.125 234.055 87.732 242.104 L 293.629 295.395 L 131.826 161.548 C 119.961 150.929 106.227 145.61 93.137 145.553 Z M 94.954 160.284 C 95.543 160.267 96.168 160.284 96.897 160.328 C 102.493 160.669 112.269 164.353 124.458 174.409 L 212.405 246.902 L 121.887 203.03 C 107.928 196.271 98.916 188.22 93.923 180.969 C 88.917 173.71 88.208 167.461 89.144 164.384 C 89.978 161.696 90.966 160.358 94.954 160.284 Z M 46.052 248.834 C 27.272 249.042 11.974 258.713 6.365 279.578 C -4.327 319.393 19.799 358.397 67.206 360.001 C 45.158 350.57 32.387 329.036 37.459 302.823 C 42.589 276.296 63.139 261.664 87.561 261.146 C 73.417 252.977 58.92 248.686 46.052 248.834 Z M 87.621 271.378 C 70.751 271.721 55.881 281.45 50.197 305.155 C 43.266 334.129 66.774 356.245 98.759 353.839 L 280.813 346.95 L 113.568 277.333 C 105.566 273.62 97.218 271.499 89.257 271.378 C 88.701 271.353 88.162 271.353 87.621 271.378 Z M 86.695 285.79 C 91.561 285.649 98.7 286.828 107.895 290.611 L 192.047 325.592 L 112.35 313.933 C 99.406 312.049 90.332 307.752 84.787 303.208 C 79.228 298.68 77.427 294.014 77.501 291.433 C 77.577 288.82 78.161 287.448 82.597 286.308 C 83.708 286.023 85.079 285.83 86.695 285.79 Z" style="paint-order: stroke; stroke: rgb(255, 255, 255); stroke-width: 0px; transform-origin: 179.999px 180.003px 0px;" id="object-0"/>
  <text style="fill: rgb(221, 221, 221); font-family: &quot;ADLaM Display&quot;; font-size: 150px; font-weight: 700; white-space: pre;" x="398.182" y="216.279">FERAL</text>
  <text style="fill: rgb(51, 51, 51); font-family: &quot;ADLaM Display&quot;; font-size: 150px; white-space: pre;" x="403.649" y="223.717">FERAL</text>
  <text style="fill: rgb(51, 51, 51); font-family: &quot;AR One Sans&quot;; font-size: 53px; font-weight: 525; white-space: pre;" x="395.577" y="293.618">Game engine</text>
</svg>